<svg width="121" height="180" viewBox="0 0 121 180" fill="none" xmlns="http://www.w3.org/2000/svg">
<circle cx="117.5" cy="3.5" r="3.5" fill="#D59C68"/>
<circle cx="98.5" cy="3.5" r="3.5" fill="#D59C68"/>
<circle cx="79.5" cy="3.5" r="3.5" fill="#D59C68"/>
<circle cx="117.5" cy="22.5" r="3.5" fill="#D59C68"/>
<circle cx="98.5" cy="22.5" r="3.5" fill="#D59C68"/>
<circle cx="79.5" cy="22.5" r="3.5" fill="#D59C68"/>
<circle cx="117.5" cy="41.5" r="3.5" fill="#D59C68"/>
<circle cx="98.5" cy="41.5" r="3.5" fill="#D59C68"/>
<circle cx="79.5" cy="41.5" r="3.5" fill="#D59C68"/>
<circle cx="117.5" cy="60.5" r="3.5" fill="#D59C68"/>
<circle cx="98.5" cy="60.5" r="3.5" fill="#D59C68"/>
<circle cx="79.5" cy="60.5" r="3.5" fill="#D59C68"/>
<circle cx="117.5" cy="79.5" r="3.5" fill="#D59C68"/>
<circle cx="98.5" cy="79.5" r="3.5" fill="#D59C68"/>
<circle cx="79.5" cy="79.5" r="3.5" fill="#D59C68"/>
<circle cx="117.5" cy="98.5" r="3.5" fill="#D59C68"/>
<circle cx="60.5" cy="138.5" r="3.5" fill="#D59C68"/>
<circle cx="117.5" cy="117.5" r="3.5" fill="#D59C68"/>
<circle cx="60.5" cy="157.5" r="3.5" fill="#D59C68"/>
<circle cx="117.5" cy="157.5" r="3.5" fill="#D59C68"/>
<circle cx="117.5" cy="136.5" r="3.5" fill="#D59C68"/>
<circle cx="60.5" cy="176.5" r="3.5" fill="#D59C68"/>
<circle cx="117.5" cy="176.5" r="3.5" fill="#D59C68"/>
<circle cx="98.5" cy="98.5" r="3.5" fill="#D59C68"/>
<circle cx="41.5" cy="138.5" r="3.5" fill="#D59C68"/>
<circle cx="98.5" cy="117.5" r="3.5" fill="#D59C68"/>
<circle cx="41.5" cy="157.5" r="3.5" fill="#D59C68"/>
<circle cx="98.5" cy="157.5" r="3.5" fill="#D59C68"/>
<circle cx="98.5" cy="136.5" r="3.5" fill="#D59C68"/>
<circle cx="41.5" cy="176.5" r="3.5" fill="#D59C68"/>
<circle cx="98.5" cy="176.5" r="3.5" fill="#D59C68"/>
<circle cx="79.5" cy="98.5" r="3.5" fill="#D59C68"/>
<circle cx="22.5" cy="138.5" r="3.5" fill="#D59C68"/>
<circle cx="3.5" cy="138.5" r="3.5" fill="#D59C68"/>
<circle cx="79.5" cy="117.5" r="3.5" fill="#D59C68"/>
<circle cx="22.5" cy="157.5" r="3.5" fill="#D59C68"/>
<circle cx="79.5" cy="157.5" r="3.5" fill="#D59C68"/>
<circle cx="3.5" cy="157.5" r="3.5" fill="#D59C68"/>
<circle cx="79.5" cy="136.5" r="3.5" fill="#D59C68"/>
<circle cx="22.5" cy="176.5" r="3.5" fill="#D59C68"/>
<circle cx="79.5" cy="176.5" r="3.5" fill="#D59C68"/>
<circle cx="3.5" cy="176.5" r="3.5" fill="#D59C68"/>
</svg>
