<svg width="124" height="23" viewBox="0 0 124 23" fill="none" xmlns="http://www.w3.org/2000/svg">
<path d="M11.1562 14.4844H4.99219L3.82031 18H0.0820312L6.43359 0.9375H9.69141L16.0781 18H12.3398L11.1562 14.4844ZM5.94141 11.6367H10.207L8.0625 5.25L5.94141 11.6367ZM21.0234 18H17.625V0H21.0234V18ZM35.2383 11.7773C35.2383 13.7305 34.793 15.2969 33.9023 16.4766C33.0195 17.6484 31.8242 18.2344 30.3164 18.2344C29.0352 18.2344 28 17.7891 27.2109 16.8984V22.875H23.8242V5.32031H26.9648L27.082 6.5625C27.9023 5.57812 28.9727 5.08594 30.293 5.08594C31.8555 5.08594 33.0703 5.66406 33.9375 6.82031C34.8047 7.97656 35.2383 9.57031 35.2383 11.6016V11.7773ZM31.8516 11.5312C31.8516 10.3516 31.6406 9.44141 31.2188 8.80078C30.8047 8.16016 30.1992 7.83984 29.4023 7.83984C28.3398 7.83984 27.6094 8.24609 27.2109 9.05859V14.25C27.625 15.0859 28.3633 15.5039 29.4258 15.5039C31.043 15.5039 31.8516 14.1797 31.8516 11.5312ZM40.6523 6.70312C41.5508 5.625 42.6797 5.08594 44.0391 5.08594C46.7891 5.08594 48.1836 6.68359 48.2227 9.87891V18H44.8359V9.97266C44.8359 9.24609 44.6797 8.71094 44.3672 8.36719C44.0547 8.01562 43.5352 7.83984 42.8086 7.83984C41.8164 7.83984 41.0977 8.22266 40.6523 8.98828V18H37.2656V0H40.6523V6.70312ZM58.125 18C57.9688 17.6953 57.8555 17.3164 57.7852 16.8633C56.9648 17.7773 55.8984 18.2344 54.5859 18.2344C53.3438 18.2344 52.3125 17.875 51.4922 17.1562C50.6797 16.4375 50.2734 15.5312 50.2734 14.4375C50.2734 13.0938 50.7695 12.0625 51.7617 11.3438C52.7617 10.625 54.2031 10.2617 56.0859 10.2539H57.6445V9.52734C57.6445 8.94141 57.4922 8.47266 57.1875 8.12109C56.8906 7.76953 56.418 7.59375 55.7695 7.59375C55.1992 7.59375 54.75 7.73047 54.4219 8.00391C54.1016 8.27734 53.9414 8.65234 53.9414 9.12891H50.5547C50.5547 8.39453 50.7812 7.71484 51.2344 7.08984C51.6875 6.46484 52.3281 5.97656 53.1562 5.625C53.9844 5.26562 54.9141 5.08594 55.9453 5.08594C57.5078 5.08594 58.7461 5.48047 59.6602 6.26953C60.582 7.05078 61.043 8.15234 61.043 9.57422V15.0703C61.0508 16.2734 61.2188 17.1836 61.5469 17.8008V18H58.125ZM55.3242 15.6445C55.8242 15.6445 56.2852 15.5352 56.707 15.3164C57.1289 15.0898 57.4414 14.7891 57.6445 14.4141V12.2344H56.3789C54.6836 12.2344 53.7812 12.8203 53.6719 13.9922L53.6602 14.1914C53.6602 14.6133 53.8086 14.9609 54.1055 15.2344C54.4023 15.5078 54.8086 15.6445 55.3242 15.6445Z" fill="white"/>
<path d="M64.3242 18V0.9375H69.9023C71.7539 0.9375 73.1445 1.32031 74.0742 2.08594C75.0117 2.85156 75.4805 3.98438 75.4805 5.48438C75.4805 6.28125 75.2539 6.98828 74.8008 7.60547C74.3477 8.21484 73.7305 8.6875 72.9492 9.02344C73.8711 9.28125 74.5977 9.77344 75.1289 10.5C75.668 11.2188 75.9375 12.0781 75.9375 13.0781C75.9375 14.6094 75.4414 15.8125 74.4492 16.6875C73.457 17.5625 72.0547 18 70.2422 18H64.3242ZM66.5742 10.0195V16.1602H70.2891C71.3359 16.1602 72.1602 15.8906 72.7617 15.3516C73.3711 14.8047 73.6758 14.0547 73.6758 13.1016C73.6758 11.0469 72.5586 10.0195 70.3242 10.0195H66.5742ZM66.5742 8.21484H69.9727C70.957 8.21484 71.7422 7.96875 72.3281 7.47656C72.9219 6.98438 73.2188 6.31641 73.2188 5.47266C73.2188 4.53516 72.9453 3.85547 72.3984 3.43359C71.8516 3.00391 71.0195 2.78906 69.9023 2.78906H66.5742V8.21484ZM78.3633 11.543C78.3633 10.3008 78.6055 9.18359 79.0898 8.19141C79.582 7.19922 80.2617 6.43359 81.1289 5.89453C82.0039 5.35547 83 5.08594 84.1172 5.08594C85.8438 5.08594 87.2383 5.68359 88.3008 6.87891C89.3711 8.07422 89.9062 9.66406 89.9062 11.6484V11.8008C89.9062 13.0352 89.668 14.1445 89.1914 15.1289C88.7227 16.1055 88.0469 16.8672 87.1641 17.4141C86.2891 17.9609 85.2812 18.2344 84.1406 18.2344C82.4219 18.2344 81.0273 17.6367 79.957 16.4414C78.8945 15.2461 78.3633 13.6641 78.3633 11.6953V11.543ZM80.543 11.8008C80.543 13.207 80.8672 14.3359 81.5156 15.1875C82.1719 16.0391 83.0469 16.4648 84.1406 16.4648C85.2422 16.4648 86.1172 16.0352 86.7656 15.1758C87.4141 14.3086 87.7383 13.0977 87.7383 11.543C87.7383 10.1523 87.4062 9.02734 86.7422 8.16797C86.0859 7.30078 85.2109 6.86719 84.1172 6.86719C83.0469 6.86719 82.1836 7.29297 81.5273 8.14453C80.8711 8.99609 80.543 10.2148 80.543 11.8008ZM100.453 18C100.328 17.75 100.227 17.3047 100.148 16.6641C99.1406 17.7109 97.9375 18.2344 96.5391 18.2344C95.2891 18.2344 94.2617 17.8828 93.457 17.1797C92.6602 16.4688 92.2617 15.5703 92.2617 14.4844C92.2617 13.1641 92.7617 12.1406 93.7617 11.4141C94.7695 10.6797 96.1836 10.3125 98.0039 10.3125H100.113V9.31641C100.113 8.55859 99.8867 7.95703 99.4336 7.51172C98.9805 7.05859 98.3125 6.83203 97.4297 6.83203C96.6562 6.83203 96.0078 7.02734 95.4844 7.41797C94.9609 7.80859 94.6992 8.28125 94.6992 8.83594H92.5195C92.5195 8.20312 92.7422 7.59375 93.1875 7.00781C93.6406 6.41406 94.25 5.94531 95.0156 5.60156C95.7891 5.25781 96.6367 5.08594 97.5586 5.08594C99.0195 5.08594 100.164 5.45312 100.992 6.1875C101.82 6.91406 102.25 7.91797 102.281 9.19922V15.0352C102.281 16.1992 102.43 17.125 102.727 17.8125V18H100.453ZM96.8555 16.3477C97.5352 16.3477 98.1797 16.1719 98.7891 15.8203C99.3984 15.4688 99.8398 15.0117 100.113 14.4492V11.8477H98.4141C95.7578 11.8477 94.4297 12.625 94.4297 14.1797C94.4297 14.8594 94.6562 15.3906 95.1094 15.7734C95.5625 16.1562 96.1445 16.3477 96.8555 16.3477ZM111.809 7.26562C111.48 7.21094 111.125 7.18359 110.742 7.18359C109.32 7.18359 108.355 7.78906 107.848 9V18H105.68V5.32031H107.789L107.824 6.78516C108.535 5.65234 109.543 5.08594 110.848 5.08594C111.27 5.08594 111.59 5.14062 111.809 5.25V7.26562ZM113.051 11.5547C113.051 9.60938 113.512 8.04688 114.434 6.86719C115.355 5.67969 116.562 5.08594 118.055 5.08594C119.539 5.08594 120.715 5.59375 121.582 6.60938V0H123.75V18H121.758L121.652 16.6406C120.785 17.7031 119.578 18.2344 118.031 18.2344C116.562 18.2344 115.363 17.6328 114.434 16.4297C113.512 15.2266 113.051 13.6562 113.051 11.7188V11.5547ZM115.219 11.8008C115.219 13.2383 115.516 14.3633 116.109 15.1758C116.703 15.9883 117.523 16.3945 118.57 16.3945C119.945 16.3945 120.949 15.7773 121.582 14.543V8.71875C120.934 7.52344 119.938 6.92578 118.594 6.92578C117.531 6.92578 116.703 7.33594 116.109 8.15625C115.516 8.97656 115.219 10.1914 115.219 11.8008Z" fill="white" fill-opacity="0.5"/>
</svg>
